# xmcd CD database file
#
# Track frame offsets:
#	225
#	19733
#	33773
#	49207
#	69372
#	87656
#	104528
#	124440
#	138636
#	156334
#	170836
#	189561
#	206186
#	220942
#	237199
#
# Disc length: 3482 seconds
#
# Revision: 0
# Processed by: cddbd v1.5.1PL0 Copyright (c) Steve Scherf et al.
# Submitted via: CDex 1.51
#
DISCID=e70d970f
DTITLE=Diesel Cowboys - Still Rollin'
DYEAR=2004
DGENRE=Country
TTITLE0=Down Louisiana Way
TTITLE1=Heartaches by the number
TTITLE2=Seminole Wind
TTITLE3=The River
TTITLE4=Knock yourself out
TTITLE5=Amarillo by morning
TTITLE6=Dirty little town
TTITLE7=Hey Hey Maria
TTITLE8=Tougher than the rest
TTITLE9=We got the love
TTITLE10=Farther down the line
TTITLE11=Designated drinker
TTITLE12=Tulsa time
TTITLE13=All my cloudy days
TTITLE14=Mandolin Medley
EXTD=YEAR: 2004
EXTT0=
EXTT1=
EXTT2=
EXTT3=
EXTT4=
EXTT5=
EXTT6=
EXTT7=
EXTT8=
EXTT9=
EXTT10=
EXTT11=
EXTT12=
EXTT13=
EXTT14=
PLAYORDER=
